<svg<div data-ved="0CA8Q-z9qFwoTCNDE8MLIloMDFQAAAAAdAAAAABAK" data-hveid="15" decode-data-ved="1" class="v6bUne" jscontroller="D8Qs1c" jsaction="Y32OL:P5FM4d;agoMJf:XAeZkd;Ol6Spe:OE3eub;Hm2xyb:o51pnc;sJdTQd:WwrPVe;Gs3Vpc:kMj2mf;FhoYob:pa6P2b;" data-lnsmd=""><div jsname="figiqf" class="p7sI2 PUxBg" jsaction="trigger.sJdTQd" data-ved="0CBAQ5OoBahcKEwjQxPDCyJaDAxUAAAAAHQAAAAAQCg"><a role="link" tabindex="0" rel="noopener" target="_blank" href="https://www.google.com/url?sa=i&amp;url=https%3A%2F%2Fwww.moedelo.org%2Fclub%2Fproverka-kontragentov%2Fkak-proverit-ip-na-sushchestvovanie&amp;psig=AOvVaw1VgH-1gNePigsDL1f2h9Sy&amp;ust=1702905789964000&amp;source=images&amp;cd=vfe&amp;opi=89978449&amp;ved=0CBEQjRxqFwoTCNDE8MLIloMDFQAAAAAdAAAAABAK" jsaction="focus:trigger.HTIQtd;mousedown:trigger.HTIQtd;touchstart:trigger.HTIQtd;" aria-label="Открыть сайт &quot;Моё дело&quot;" class="jlTjKd" data-ved="0CBEQjRxqFwoTCNDE8MLIloMDFQAAAAAdAAAAABAK" rlhc="1"><img src="https://www.moedelo.org/storage/uploads/club/article-proverka-kontragentov/cover/fICfvglrcUi7abUTC_1Ey7fhLRFuMjDA.jpg" jsaction="VQAsE" class="sFlh5c pT0Scc iPVvYb" style="max-width: 870px; height: 275px; margin: 0px; width: 556px;" alt="Как проверить ИП на существование в 2022 году — «Моё Дело»" jsname="kn3ccd" aria-hidden="false"><img src="https://encrypted-tbn0.gstatic.com/images?q=tbn:ANd9GcSupYZ_WblCHbC05zGD82vqD7W2qpt6RlXeA15720wjYuzTPxa7dkGjPf9xXEAzEOLha2Q&amp;usqp=CAU" jsaction="VQAsE" class="sFlh5c pT0Scc" alt="Как проверить ИП на существование в 2022 году — «Моё Дело»" jsname="JuXqh" style="max-width: 870px; width: 767px; height: 379px; margin: 0px; position: absolute; visibility: hidden;" data-iml="38174.800000000745"><span class="qhktO">870 × 430</span></a><div class="VeTdYb" jsname="KxWeif" style="display: none;"></div><div jscontroller="NcDcif" jsaction="Gs3Vpc:kMj2mf;FhoYob:pa6P2b;MlkxK:g6f2ec" jsname="BfZkPe" class="XqE7Pc"></div></div><div class="Xjvi4" jsname="z3cZ2b"><div jsname="BxdfFe" class="VQdPMb"><div jscontroller="vYwzYe" jsaction="AraVJf:s8dgVb;Gs3Vpc:kMj2mf;FhoYob:pa6P2b;la2Nye:u5pWpd;FY1vjc:cPJQ9e;AedDOe:K9M4o;sm6kQ:fzdo0d;" jsname="no6H6e" class="VPiJae"><button jsaction="rcuQ6b:npT2md;h5M12e;" class="iM6qI kM7Sgc" jsname="LgbsSe" aria-label="Поиск на изображении" data-ved="0CBIQh6cGahcKEwjQxPDCyJaDAxUAAAAAHQAAAAAQCg" jscontroller="qoNFJd" jslog="103303;ved:0CBIQh6cGahcKEwjQxPDCyJaDAxUAAAAAHQAAAAAQCg;track:click"><div class="ig2Tkd LkIdQb RsW3Ke RMagM KlOMXb MjJqGe  cd29Sd kM7Sgc" jsname="XTYNyb"><div class="Y4cdKc"><svg viewBox="0 0 24 24" focusable="false" height="24" width="24"><path d="M0 0h24v24H0z" fill="none"></path><path d="M21,9v4h-2V9c0-1.1-0.9-2-2-2H7C5.9,7,5,7.9,5,9v3H3V9c0-2.21,1.79-4,4-4h2l1-2h4l1,2h2C19.21,5,21,6.79,21,9z M12,21H7 c-2.21,0-4-1.79-4-4v-2h2v2c0,1.1,0.9,2,2,2h5V21z M18,16c1.1,0,2,0.9,2,2s-0.9,2-2,2s-2-0.9-2-2S16.9,16,18,16z M12,10   c1.66,0,3,1.34,3,3s-1.34,3-3,3s-3-1.34-3-3S10.34,10,12,10z"></path></svg></div><span class="iLgTbf lScUbc cS4Vcb-pGL6qe-lfQAOe"></span></div></button></div></div></div></div><path d="M520.5 78.1z"/></g></svg>